<svg width="60" height="60" xmlns="http://www.w3.org/2000/svg" viewBox="0 0 60 60">
  <g transform="scale(.9677)">
    <rect x="1.24" y="25.1" width="59.36" height="35.27" rx="11.26" fill="#70d070"/>
    <path d="M61 36.16v13.53a10.9 10.9 0 01-10.92 10.87H46a10.9 10.9 0 0010.94-10.87V36.16A10.9 10.9 0 0046 25.29h4.06A10.9 10.9 0 0161 36.16z" opacity=".4" fill="#fff"/>
    <rect x="1" y="25.13" width="59.84" height="35.87" rx="11.38" fill="none" stroke="#565a5c" stroke-linecap="round" stroke-linejoin="round" stroke-width="2"/>
    <path d="M44.25 31.17h-.2a2.92 2.92 0 00-3 2.87v.19a3 3 0 003 2.88h.21a2.89 2.89 0 002.95-2.86v-.2a3 3 0 00-2.96-2.88z" fill="#fcc02d"/>
    <path style="mix-blend-mode:lighten" d="M46.57 33.54a3.09 3.09 0 01-3.21 3 3.32 3.32 0 01-1.61-.41.39.39 0 00.11-.06 2.51 2.51 0 00.62.07 2.56 2.56 0 100-5.12 2.43 2.43 0 00-.61.06.41.41 0 00-.11-.07 3.42 3.42 0 011.6-.41 3.14 3.14 0 013.21 2.94z" fill="#fff" opacity=".4"/>
    <path d="M44.25 31.17h-.2a2.92 2.92 0 00-3 2.87v.19a3 3 0 003 2.88h.21a2.89 2.89 0 002.95-2.86v-.2a3 3 0 00-2.96-2.88z" fill="none" stroke="#565a5c" stroke-linecap="round" stroke-linejoin="round" stroke-width="2"/>
    <path d="M53.14 40.52h-.2a2.92 2.92 0 00-3 2.87v.2a2.94 2.94 0 003 2.87h.21a2.89 2.89 0 003-2.86v-.2a3 3 0 00-3.01-2.88z" fill="#fcc02d"/>
    <path style="mix-blend-mode:lighten" d="M55.46 42.89a3.09 3.09 0 01-3.21 3 3.32 3.32 0 01-1.61-.41.24.24 0 00.11-.06 2.51 2.51 0 00.62.07 2.56 2.56 0 100-5.12 2.51 2.51 0 00-.62.06.41.41 0 00-.11-.07 3.42 3.42 0 011.6-.41 3.14 3.14 0 013.22 2.94z" fill="#fff" opacity=".4"/>
    <path d="M53.14 40.52h-.2a2.92 2.92 0 00-3 2.87v.2a2.94 2.94 0 003 2.87h.21a2.89 2.89 0 003-2.86v-.2a3 3 0 00-3.01-2.88z" fill="none" stroke="#565a5c" stroke-linecap="round" stroke-linejoin="round" stroke-width="2"/>
    <path d="M35.29 40.52h-.21a2.91 2.91 0 00-2.95 2.87v.2a2.94 2.94 0 003 2.87h.2a2.91 2.91 0 003-2.86v-.2a3 3 0 00-3.04-2.88z" fill="#fcc02d"/>
    <path style="mix-blend-mode:lighten" d="M37.6 42.89a3.08 3.08 0 01-3.21 3 3.31 3.31 0 01-1.6-.41.24.24 0 00.11-.06 2.43 2.43 0 00.61.07 2.56 2.56 0 100-5.12 2.43 2.43 0 00-.61.06.35.35 0 00-.12-.07 3.46 3.46 0 011.61-.41 3.13 3.13 0 013.21 2.94z" fill="#fff" opacity=".4"/>
    <path d="M35.29 40.52h-.21a2.91 2.91 0 00-2.95 2.87v.2a2.94 2.94 0 003 2.87h.2a2.91 2.91 0 003-2.86v-.2a3 3 0 00-3.04-2.88z" fill="none" stroke="#565a5c" stroke-linecap="round" stroke-linejoin="round" stroke-width="2"/>
    <path d="M44.25 49.56h-.2a2.92 2.92 0 00-3 2.87v.2a3 3 0 003 2.88h.21a2.91 2.91 0 002.95-2.87v-.2a3 3 0 00-2.96-2.88z" fill="#fcc02d"/>
    <path style="mix-blend-mode:lighten" d="M46.57 51.93a3.1 3.1 0 01-3.21 3 3.56 3.56 0 01-1.61-.41.41.41 0 00.11-.07 2.51 2.51 0 00.62.07 2.56 2.56 0 100-5.12 2.43 2.43 0 00-.61.07.41.41 0 00-.11-.07 3.32 3.32 0 011.6-.42 3.14 3.14 0 013.21 2.95z" fill="#fff" opacity=".4"/>
    <path d="M44.25 49.56h-.2a2.92 2.92 0 00-3 2.87v.2a3 3 0 003 2.88h.21a2.91 2.91 0 002.95-2.87v-.2a3 3 0 00-2.96-2.88z" fill="none" stroke="#565a5c" stroke-linecap="round" stroke-linejoin="round" stroke-width="2"/>
    <path d="M26.21 42.87a2.73 2.73 0 01-2.75 2.74l-4.74.06.06 4.89a2.76 2.76 0 01-4.7 1.94 2.75 2.75 0 01-.81-1.94s0-2-.1-4.82l-4.77.06a2.74 2.74 0 110-5.48l4.7-.07v-4.68a2.76 2.76 0 015.51 0l.06 4.62 4.81-.07a2.81 2.81 0 011.95.81 2.76 2.76 0 01.78 1.94z" fill="#ba9bc9"/>
    <path d="M26.21 42.87a2.73 2.73 0 01-2.75 2.74l-4.74.06.06 4.89a2.76 2.76 0 01-4.7 1.94 2.75 2.75 0 01-.81-1.94s0-2-.1-4.82l-4.77.06a2.74 2.74 0 110-5.48l4.7-.07v-4.68a2.76 2.76 0 015.51 0l.06 4.62 4.81-.07a2.81 2.81 0 011.95.81 2.76 2.76 0 01.78 1.94z" fill="none" stroke="#565a5c" stroke-linecap="round" stroke-linejoin="round" stroke-width="2"/>
    <path d="M17.73 25.09v-7.53a9 9 0 019.06-9h14.08A1.51 1.51 0 0042.38 7V1h9.06v7.54a9 9 0 01-4 7.47l-.56.35c-.2.1-.38.21-.59.3a7.7 7.7 0 01-1.89.66 8.14 8.14 0 01-2 .24H28.3a.36.36 0 00-.15 0H28a1.09 1.09 0 00-.54.22 1.81 1.81 0 00-.23.18 1.5 1.5 0 00-.44 1v6z" fill="#64bd65"/>
    <path d="M22.45 25.09v-6A1.5 1.5 0 0124 17.58h4.53a1.45 1.45 0 00-.3 0 1.09 1.09 0 00-.54.22l-.23.18a1.5 1.5 0 00-.44 1v6zm15.21-7.54h4.53a9.11 9.11 0 002-.23 9 9 0 001.89-.66c.21-.09.39-.2.59-.3s.38-.23.56-.35a9 9 0 004-7.47V1h-4.51v7.53a9 9 0 01-9.06 9.02z" fill="#fff" opacity=".4"/>
    <path d="M17.92 25.1v-7.53a9 9 0 019.06-9h13.7A1.51 1.51 0 0042.19 7V1h9.06v7.53a9 9 0 01-4 7.47l-.56.35a6.54 6.54 0 01-.59.3 7.18 7.18 0 01-1.89.66 8.14 8.14 0 01-2 .24H28.19a1.1 1.1 0 00-.54.23.9.9 0 00-.23.18 1.5 1.5 0 00-.42 1.11v6z" fill="none" stroke="#565a5c" stroke-linecap="round" stroke-linejoin="round" stroke-width="2"/>
    <path style="mix-blend-mode:multiply" d="M18.86 20.58h7.17v3.52h-7.17zM43.2 2h7.06v3.52H43.2z" opacity=".1"/>
  </g>
</svg>