<svg width="60" height="60" viewBox="0 0 60 60" xmlns="http://www.w3.org/2000/svg">
  <g transform="translate(0 11)" fill="none" fill-rule="evenodd">
    <g stroke="#494C4E" stroke-width="2">
      <path d="M30 32.25L48.175 43.07a.498.498 0 01.172.686.5.5 0 01-.43.243h0-35.835a.498.498 0 01-.5-.5.5.5 0 01.243-.429h0l17.918-10.75a.5.5 0 01.257-.072h0z" fill="#9EA5A9"/>
      <path d="M30 32.25L48.175 43.07a.498.498 0 01.172.686.5.5 0 01-.43.243h0-35.835a.498.498 0 01-.5-.5.5.5 0 01.243-.429h0l17.918-10.75a.5.5 0 01.257-.072h0z"/>
    </g>
    <path fill="#000" fill-rule="nonzero" opacity=".15" d="M20 37h20l3.327 2H16.67z"/>
    <rect fill="#D66DAC" x="2" y="2" width="56" height="33" rx="1"/>
    <g transform="translate(14 4.994)" fill-rule="nonzero">
      <path d="M31 31.006c-.024-8.274-6.726-14.976-15-15-8.274.024-14.976 6.726-15 15h30z" fill="#70D070"/>
      <path d="M16 16.006c-.506 0-1.006.027-1.5.076 7.653.793 13.476 7.23 13.5 14.924h3c-.024-8.274-6.726-14.976-15-15z" fill="#FFF" opacity=".4"/>
      <circle fill="#70D070" cx="16" cy="8.506" r="7.5"/>
      <path d="M16 1.006c-.504 0-1.006.05-1.5.15a7.5 7.5 0 010 14.7A7.5 7.5 0 1016 1.006z" fill="#FFF" opacity=".4"/>
      <path d="M20.54 15.686a8.5 8.5 0 10-9.08 0A16.078 16.078 0 000 31.006c0 .266.103.52.29.71.19.184.445.288.71.29h30c.265-.002.52-.106.71-.29.187-.19.29-.444.29-.71a16.078 16.078 0 00-11.46-15.32zM9.5 8.506a6.5 6.5 0 116.5 6.5 6.513 6.513 0 01-6.5-6.5zm-7.46 21.5c.553-7.3 6.638-12.942 13.96-12.942 7.322 0 13.407 5.641 13.96 12.942H2.04z" fill="#494C4E"/>
    </g>
    <path d="M57 0a3 3 0 013 3v31a3 3 0 01-3 3H3a3 3 0 01-3-3V3a3 3 0 013-3h54zm0 2H3a1 1 0 00-1 1v31a1 1 0 001 1h54a1 1 0 001-1V3a1 1 0 00-1-1z" fill="#494C4E"/>
  </g>
</svg>