<svg xmlns="http://www.w3.org/2000/svg" viewBox="0 0 67.43 62.43">
  <defs>
    <style>
      .cls-2{fill:#565a5c}.cls-4{fill:#fff}.cls-7{stroke:#565a5c;stroke-miterlimit:10;fill:none}
    </style>
  </defs>
  <rect width="4.21" height="54.69" x="31.61" y="3.87" fill="#7fc7dc" rx="2.1"/>
  <path d="M34.17 59.11h-.91a2.21 2.21 0 01-2.2-2.2V5.52a2.21 2.21 0 012.2-2.2h.91a2.21 2.21 0 012.2 2.2v51.39a2.21 2.21 0 01-2.2 2.2zm-.91-54.69a1.1 1.1 0 00-1.1 1.1v51.39a1.1 1.1 0 001.1 1.1h.91a1.1 1.1 0 001.1-1.1V5.52a1.1 1.1 0 00-1.1-1.1z" class="cls-2"/>
  <path d="M34.18 4.27V59a1.65 1.65 0 001.64-1.65V5.92a1.65 1.65 0 00-1.64-1.65z" class="cls-4" opacity=".38"/>
  <path d="M34.17 59.11h-.91a2.21 2.21 0 01-2.2-2.2V5.52a2.21 2.21 0 012.2-2.2h.91a2.21 2.21 0 012.2 2.2v51.39a2.21 2.21 0 01-2.2 2.2zm-.91-54.69a1.1 1.1 0 00-1.1 1.1v51.39a1.1 1.1 0 001.1 1.1h.91a1.1 1.1 0 001.1-1.1V5.52a1.1 1.1 0 00-1.1-1.1z" class="cls-2"/>
  <path fill="#46a661" stroke="#565a5c" stroke-miterlimit="10" d="M35.82 10.57h21.84L63.49 18l-5.83 7.44H35.82V10.57z"/>
  <path fill="#46a661" stroke="#fcfcfc" stroke-miterlimit="10" stroke-width="2" d="M35.27 11.57h21.85L62.94 19" opacity=".29"/>
  <path d="M35.82 10.57h21.84L63.49 18l-5.83 7.44H35.82V10.57z" class="cls-7"/>
  <path d="M50.05 22.22a1.35 1.35 0 01-1-.41L47 19.71a1.43 1.43 0 01-.41-1 1.4 1.4 0 012.4-1l1.11 1.11 3.21-3.22a1.41 1.41 0 012 2L51 21.81a1.37 1.37 0 01-.95.41z" class="cls-4"/>
  <path d="M54.26 15.91a.71.71 0 01.49 1.2l-4.21 4.21a.7.7 0 01-.49.2.74.74 0 01-.5-.2l-2.1-2.11a.71.71 0 010-1 .71.71 0 011 0l1.61 1.61 3.71-3.71a.7.7 0 01.5-.21m0-1.4a2.08 2.08 0 00-1.49.62l-2.72 2.72-.62-.62a2.06 2.06 0 00-1.44-.61 2.12 2.12 0 00-2.11 2.11 2.06 2.06 0 00.62 1.48l2.1 2.11a2.12 2.12 0 003 0l4.2-4.21a2.08 2.08 0 00.62-1.49 2.12 2.12 0 00-2.1-2.1z" class="cls-2"/>
  <path fill="#adadad" d="M31.61 20.13H9.77l-5.83 7.44 5.83 7.44h21.84V20.13z"/>
  <path fill="#fcfcfc" d="M8.74 20.13h23.42v2H8.74z" opacity=".29"/>
  <path d="M31.61 20.13H9.77l-5.83 7.44 5.83 7.44h21.84V20.13z" class="cls-7"/>
  <rect width="16.86" height="4.6" x="10.86" y="25.34" fill="#fff" stroke="#565a5c" stroke-miterlimit="10" rx="2.3"/>
  <rect width="11.42" height="4.6" x="16.3" y="25.34" fill="#006fbf" stroke="#565a5c" stroke-miterlimit="10" rx="2.3"/>
  <path fill="none" stroke="#fff" stroke-miterlimit="10" d="M11.35 26.23h15.88" opacity=".34"/>
  <path fill="none" stroke="#d8d8d8" stroke-miterlimit="10" d="M11.35 26.23h4.95" opacity=".34"/>
  <rect width="16.86" height="4.6" x="10.86" y="25.34" class="cls-7" rx="2.3"/>
  <rect width="11.42" height="4.6" x="16.3" y="25.34" class="cls-7" rx="2.3"/>
</svg>