<svg xmlns="http://www.w3.org/2000/svg" width="60" height="60" viewBox="0 0 60 60">
  <rect width="4.15" height="58.82" x="27.93" y=".59" fill="#00afaa" rx="1.8"/>
  <path d="M30.45 60h-.9a2.28 2.28 0 01-2.17-2.37V2.37A2.28 2.28 0 0129.55 0h.9a2.28 2.28 0 012.17 2.37v55.26A2.28 2.28 0 0130.45 60zm-.9-58.82a1.13 1.13 0 00-1.08 1.19v55.26a1.13 1.13 0 001.08 1.19h.9a1.13 1.13 0 001.08-1.19V2.37a1.13 1.13 0 00-1.08-1.19z" fill="#565a5c"/>
  <path d="M30.46 1v58.84a1.71 1.71 0 001.61-1.78V2.8A1.71 1.71 0 0030.46 1z" fill="#fff" opacity=".38"/>
  <path d="M30.45 60h-.9a2.28 2.28 0 01-2.17-2.37V2.37A2.28 2.28 0 0129.55 0h.9a2.28 2.28 0 012.17 2.37v55.26A2.28 2.28 0 0130.45 60zm-.9-58.82a1.13 1.13 0 00-1.08 1.19v55.26a1.13 1.13 0 001.08 1.19h.9a1.13 1.13 0 001.08-1.19V2.37a1.13 1.13 0 00-1.08-1.19z" fill="#565a5c"/>
  <path d="M32.08 8.72h21.54l5.75 7.33-5.75 7.34H32.08V8.72z" fill="#46a661"/>
  <path d="M53.86 23.88H31.58V8.22h22.28L60 16.05zm-21.29-1h20.81l5.37-6.84-5.37-6.83H32.57z" fill="#565a5c"/>
  <g opacity="0.29">
    <path d="M31.53 9.7h21.55l5.75 7.34" fill="#46a661"/>
    <path d="M58.05 17.65l-5.45-6.96H31.73V8.72h21.83l6.05 7.71-1.56 1.22z" fill="#fcfcfc"/>
  </g>
  <path d="M53.86 23.88H31.58V8.22h22.28L60 16.05zm-21.29-1h20.81l5.37-6.84-5.37-6.83H32.57z" fill="#565a5c"/>
  <path d="M46.11 20.21a1.38 1.38 0 01-1-.4l-2.07-2.08a1.39 1.39 0 011-2.36 1.36 1.36 0 011 .41l1.1 1.09 3.17-3.17a1.39 1.39 0 012 2l-4.15 4.15a1.38 1.38 0 01-1.05.36z" fill="#fff"/>
  <path d="M50.26 14a.71.71 0 01.49.2.69.69 0 010 1l-4.15 4.12a.7.7 0 01-1 0l-2.07-2.08a.68.68 0 010-1 .67.67 0 01.49-.21.7.7 0 01.49.21l1.58 1.58 3.66-3.66a.71.71 0 01.49-.2m0-1.38a2.09 2.09 0 00-1.47.6l-2.66 2.72-.61-.61a2.07 2.07 0 10-2.93 2.93l2.07 2.08a2.09 2.09 0 001.47.6 2.06 2.06 0 001.47-.6l4.15-4.15a2.07 2.07 0 00-1.47-3.54z" fill="#565a5c"/>
  <path fill="#9ea5a9" d="M27.93 16.96H6.38L.63 24.3l5.75 7.33h21.55V16.96z"/>
  <g opacity="0.29">
    <path d="M1.95 25.89L.39 24.68l6.05-7.72h21.81v1.98H7.4l-5.45 6.95z" fill="#fcfcfc"/>
  </g>
  <path d="M28.42 32.13H6.14L0 24.3l6.14-7.83h22.28zm-21.8-1h20.81V17.46H6.62L1.25 24.3z" fill="#565a5c"/>
  <rect width="18.28" height="3.67" x="6.47" y="22.53" fill="#fff" rx="1.6"/>
  <path d="M22.92 26.7H8.3a2.33 2.33 0 010-4.7h14.62a2.33 2.33 0 010 4.66zM8.3 23a1.34 1.34 0 000 2.68h14.62a1.34 1.34 0 100-2.68z" fill="#565a5c"/>
  <rect width="12.45" height="3.67" x="12.3" y="22.53" fill="#006fbf" rx="1.6"/>
  <path d="M22.92 26.7h-8.78a2.33 2.33 0 010-4.66h8.78a2.33 2.33 0 010 4.66zM14.14 23a1.34 1.34 0 100 2.68h8.78a1.34 1.34 0 100-2.68z" fill="#565a5c"/>
</svg>