<svg width="60" height="60" viewBox="0 0 60 60" xmlns="http://www.w3.org/2000/svg" xmlns:xlink="http://www.w3.org/1999/xlink">
  <defs>
    <filter x="-2.1%" y="-3.6%" width="104.3%" height="107.1%" filterUnits="objectBoundingBox" id="b">
      <feOffset dx="-1.5" in="SourceAlpha" result="shadowOffsetInner1"/>
      <feComposite in="shadowOffsetInner1" in2="SourceAlpha" operator="arithmetic" k2="-1" k3="1" result="shadowInnerInner1"/>
      <feColorMatrix values="0 0 0 0 1 0 0 0 0 1 0 0 0 0 1 0 0 0 0.4 0" in="shadowInnerInner1"/>
    </filter>
    <rect id="a" x="2" y="2" width="35" height="21" rx="1.5"/>
  </defs>
  <g fill="none" fill-rule="evenodd">
    <path fill="#3B6AAE" fill-rule="nonzero" d="M59 39L30 59 1 39l10-20h38z"/>
    <path stroke="#494C4E" stroke-width="2" stroke-linecap="round" stroke-linejoin="round" d="M59 39L30 59 1 39l10-20h38z"/>
    <path fill="#4B87D9" fill-rule="nonzero" d="M11 19h38v16H11z"/>
    <path d="M11 19h38v16H11V19zm38 16l10 24M11 35L1 59" stroke="#494C4E" stroke-width="2" stroke-linecap="round" stroke-linejoin="round"/>
    <g>
      <g transform="rotate(-25 76.373 1.446)">
        <rect fill="#494C4E" width="39" height="25" rx="3"/>
        <use fill="#9AC965" xlink:href="#a"/>
        <use fill="#000" filter="url(#b)" xlink:href="#a"/>
      </g>
      <path d="M35.382 32.765l-6.722 9.188a.008.008 0 01-.013-.001l-4.638-9.945a.008.008 0 01.008-.012l11.36.757a.008.008 0 01.005.013z" stroke="#494C4E" stroke-width="2" fill="#F08FBB"/>
    </g>
    <g>
      <path d="M45 39a8.024 8.024 0 01-8 8H23a8.024 8.024 0 01-8-8H1v20h58V39H45z" fill="#92B7E8" fill-rule="nonzero"/>
      <path d="M20 47h3a8.024 8.024 0 01-8-8h-3a8.024 8.024 0 008 8zm36-8h3v20h-3V39z" opacity=".4" fill="#FFF" fill-rule="nonzero"/>
      <path d="M45 39a8.024 8.024 0 01-8 8H23a8.024 8.024 0 01-8-8H1v20h58V39H45z" stroke="#494C4E" stroke-width="2" stroke-linecap="round" stroke-linejoin="round"/>
    </g>
    <g>
      <path fill="#FEED58" fill-rule="nonzero" d="M26 1v11h-6l5 8 5 8 5-8 5-8h-6V1z"/>
      <path d="M37 12l-5 8-3.5 5.6L30 28l5-8 5-8h-3zM31 1h3v11h-3V1z" fill="#FFF" fill-rule="nonzero" opacity=".4"/>
      <path stroke="#494C4E" stroke-width="2" stroke-linecap="round" stroke-linejoin="round" d="M26 1v11h-6l5 8 5 8 5-8 5-8h-6V1z"/>
    </g>
  </g>
</svg>